<svg xmlns="http://www.w3.org/2000/svg" viewBox="0 0 100 100">
  <defs>
    <linearGradient id="treeGrad" x1="0%" y1="0%" x2="0%" y2="100%">
      <stop offset="0%" style="stop-color:#00ff00;stop-opacity:1" />
      <stop offset="100%" style="stop-color:#008800;stop-opacity:1" />
    </linearGradient>
    <linearGradient id="starGrad" x1="0%" y1="0%" x2="100%" y2="100%">
      <stop offset="0%" style="stop-color:#ffd700;stop-opacity:1" />
      <stop offset="100%" style="stop-color:#ffaa00;stop-opacity:1" />
    </linearGradient>
  </defs>
  
  <!-- Background circle -->
  <circle cx="50" cy="50" r="48" fill="#ff0000" opacity="0.9"/>
  
  <!-- Christmas tree -->
  <path d="M 50 20 L 35 50 L 50 45 L 65 50 Z" fill="url(#treeGrad)"/>
  <path d="M 50 35 L 30 60 L 50 55 L 70 60 Z" fill="url(#treeGrad)"/>
  <path d="M 50 50 L 25 80 L 50 75 L 75 80 Z" fill="url(#treeGrad)"/>
  
  <!-- Tree trunk -->
  <rect x="45" y="75" width="10" height="15" fill="#8B4513"/>
  
  <!-- Star on top -->
  <path d="M 50 15 L 52 22 L 59 22 L 53 26 L 55 33 L 50 28 L 45 33 L 47 26 L 41 22 L 48 22 Z" fill="url(#starGrad)"/>
  
  <!-- Water wave (LA OLA) -->
  <path d="M 20 85 Q 30 80 40 85 T 60 85 T 80 85" stroke="#00aaff" stroke-width="3" fill="none" opacity="0.8"/>
</svg>


